<?xml version="1.0" standalone="no"?>
<!DOCTYPE svg PUBLIC "-//W3C//DTD SVG 20010904//EN"
 "http://www.w3.org/TR/2001/REC-SVG-20010904/DTD/svg10.dtd">
<svg version="1.0" xmlns="http://www.w3.org/2000/svg"
 width="12.000000pt" height="12.000000pt" viewBox="0 0 512.000000 512.000000"
 preserveAspectRatio="xMidYMid meet">

<g transform="translate(0.000000,512.000000) scale(0.100000,-0.100000)"
fill="#000000" stroke="none">
<path d="M580 5109 c-29 -12 -67 -46 -83 -74 -9 -15 -13 -269 -17 -938 l-5
-919 -51 -21 c-208 -89 -380 -295 -414 -498 -33 -197 31 -381 190 -540 67 -68
103 -95 169 -127 46 -23 89 -42 97 -42 11 0 14 -150 16 -924 3 -916 3 -925 24
-952 39 -53 71 -69 134 -69 63 0 95 16 134 69 21 27 21 36 24 952 2 774 5 924
16 924 8 0 51 19 97 42 66 33 102 60 169 127 89 89 138 168 176 281 23 68 26
232 5 305 -53 190 -215 371 -405 452 l-51 21 -5 920 c-5 910 -5 921 -26 948
-11 15 -32 37 -46 47 -31 23 -111 32 -148 16z m205 -2258 c65 -29 118 -81 147
-145 33 -73 33 -219 0 -292 -29 -64 -82 -116 -146 -145 -71 -31 -220 -31 -292
0 -63 27 -116 80 -146 146 -33 72 -33 218 0 290 55 120 158 178 307 172 56 -3
95 -10 130 -26z"/>
<path d="M2453 5110 c-259 -55 -489 -295 -525 -547 -28 -193 37 -370 191 -524
67 -67 104 -95 170 -127 46 -23 90 -42 97 -42 12 0 14 -292 16 -1884 l3 -1885
21 -27 c39 -53 71 -69 134 -69 63 0 95 16 134 69 l21 27 3 1885 c2 1592 4
1884 16 1884 7 0 51 19 97 42 109 54 237 179 291 283 60 117 73 168 73 285 0
174 -57 303 -195 440 -88 88 -158 133 -267 171 -66 23 -214 33 -280 19z m252
-339 c65 -29 118 -81 147 -145 32 -73 32 -219 0 -292 -29 -63 -82 -116 -147
-146 -73 -33 -218 -33 -291 0 -63 29 -116 82 -146 147 -33 72 -33 218 0 290
55 120 158 178 307 172 56 -3 95 -10 130 -26z"/>
<path d="M4415 5106 c-37 -17 -70 -52 -84 -89 -8 -20 -11 -598 -11 -1898 0
-1585 -2 -1869 -14 -1869 -7 0 -51 -19 -97 -42 -110 -54 -237 -179 -291 -283
-60 -117 -73 -168 -73 -285 0 -174 57 -303 195 -440 137 -138 266 -195 440
-195 174 0 303 57 440 195 138 137 195 266 195 440 0 117 -13 168 -73 285 -54
104 -181 229 -291 283 -46 23 -90 42 -97 42 -12 0 -14 292 -16 1884 l-3 1885
-21 27 c-11 15 -32 37 -46 47 -34 25 -113 32 -153 13z m210 -4175 c65 -29 118
-81 147 -145 19 -42 23 -68 23 -146 0 -78 -4 -104 -23 -146 -29 -63 -82 -116
-147 -146 -72 -33 -218 -33 -291 0 -63 29 -116 82 -146 147 -33 72 -33 218 0
290 55 120 158 178 307 172 56 -3 95 -10 130 -26z"/>
</g>
</svg>
