<svg width="121" height="121" viewBox="0 0 121 121" fill="none" xmlns="http://www.w3.org/2000/svg">
<path fill-rule="evenodd" clip-rule="evenodd" d="M88 18.6154H121V27.9231H110V111.692L99 121H22L11 111.692V27.9231H0V18.6154H33V9.30769C33 6.83914 34.1589 4.47169 36.2218 2.72616C38.2847 0.980629 41.0826 0 44 0H77C79.9174 0 82.7153 0.980629 84.7782 2.72616C86.8411 4.47169 88 6.83914 88 9.30769V18.6154ZM77 9.30769H44V18.6154H77V9.30769ZM22 111.692H99V27.9231H22V111.692ZM44 37.2308H33V102.385H44V37.2308ZM55 37.2308H66V102.385H55V37.2308ZM77 37.2308H88V102.385H77V37.2308Z" fill="#E5E5E5"/>
</svg>
