<svg width="73" height="72" viewBox="0 0 73 72" fill="none" xmlns="http://www.w3.org/2000/svg">
<path d="M21.3617 43.3333C21.3617 42.8029 21.5724 42.2942 21.9474 41.9191C22.3225 41.544 22.8312 41.3333 23.3617 41.3333H32.695C33.2254 41.3333 33.7341 41.544 34.1092 41.9191C34.4843 42.2942 34.695 42.8029 34.695 43.3333C34.695 43.8638 34.4843 44.3725 34.1092 44.7475C33.7341 45.1226 33.2254 45.3333 32.695 45.3333H23.3617C22.8312 45.3333 22.3225 45.1226 21.9474 44.7475C21.5724 44.3725 21.3617 43.8638 21.3617 43.3333ZM23.3617 26.6667C22.8312 26.6667 22.3225 26.8774 21.9474 27.2525C21.5724 27.6275 21.3617 28.1362 21.3617 28.6667C21.3617 29.1971 21.5724 29.7058 21.9474 30.0809C22.3225 30.456 22.8312 30.6667 23.3617 30.6667H32.695C33.2254 30.6667 33.7341 30.456 34.1092 30.0809C34.4843 29.7058 34.695 29.1971 34.695 28.6667C34.695 28.1362 34.4843 27.6275 34.1092 27.2525C33.7341 26.8774 33.2254 26.6667 32.695 26.6667H23.3617ZM51.4417 24.5867C51.8162 24.9617 52.0266 25.47 52.0266 26C52.0266 26.53 51.8162 27.0383 51.4417 27.4133L46.1083 32.7467C45.7333 33.1212 45.225 33.3316 44.695 33.3316C44.165 33.3316 43.6567 33.1212 43.2817 32.7467L40.615 30.08C40.2617 29.7009 40.0694 29.1994 40.0785 28.6813C40.0877 28.1631 40.2976 27.6688 40.664 27.3023C41.0304 26.9359 41.5248 26.726 42.0429 26.7169C42.5611 26.7077 43.0625 26.9001 43.4417 27.2533L44.695 28.5067L48.615 24.5867C48.99 24.2121 49.4983 24.0018 50.0283 24.0018C50.5583 24.0018 51.0667 24.2121 51.4417 24.5867ZM51.4417 42.08C51.6382 41.8969 51.7958 41.6761 51.9051 41.4308C52.0144 41.1854 52.0732 40.9206 52.0779 40.6521C52.0826 40.3835 52.0332 40.1168 51.9326 39.8677C51.8321 39.6187 51.6823 39.3925 51.4924 39.2026C51.3025 39.0126 51.0763 38.8629 50.8272 38.7623C50.5782 38.6617 50.3115 38.6123 50.0429 38.6171C49.7744 38.6218 49.5095 38.6806 49.2642 38.7899C49.0189 38.8992 48.7981 39.0568 48.615 39.2533L44.695 43.1733L43.4417 41.92C43.2586 41.7235 43.0378 41.5659 42.7924 41.4566C42.5471 41.3473 42.2823 41.2885 42.0137 41.2838C41.7452 41.279 41.4784 41.3284 41.2294 41.429C40.9804 41.5296 40.7541 41.6793 40.5642 41.8692C40.3743 42.0591 40.2246 42.2854 40.124 42.5344C40.0234 42.7834 39.974 43.0502 39.9787 43.3187C39.9835 43.5873 40.0423 43.8521 40.1516 44.0974C40.2609 44.3428 40.4185 44.5636 40.615 44.7467L43.2817 47.4133C43.6567 47.7879 44.165 47.9982 44.695 47.9982C45.225 47.9982 45.7333 47.7879 46.1083 47.4133L51.4417 42.08ZM18.0283 12C16.437 12 14.9109 12.6321 13.7857 13.7574C12.6605 14.8826 12.0283 16.4087 12.0283 18V54C12.0283 55.5913 12.6605 57.1174 13.7857 58.2426C14.9109 59.3679 16.437 60 18.0283 60H54.0283C55.6196 60 57.1457 59.3679 58.271 58.2426C59.3962 57.1174 60.0283 55.5913 60.0283 54V18C60.0283 16.4087 59.3962 14.8826 58.271 13.7574C57.1457 12.6321 55.6196 12 54.0283 12H18.0283ZM16.0283 18C16.0283 17.4696 16.239 16.9609 16.6141 16.5858C16.9892 16.2107 17.4979 16 18.0283 16H54.0283C54.5588 16 55.0675 16.2107 55.4425 16.5858C55.8176 16.9609 56.0283 17.4696 56.0283 18V54C56.0283 54.5304 55.8176 55.0391 55.4425 55.4142C55.0675 55.7893 54.5588 56 54.0283 56H18.0283C17.4979 56 16.9892 55.7893 16.6141 55.4142C16.239 55.0391 16.0283 54.5304 16.0283 54V18Z" fill="#454545"/>
</svg>
