<svg width="18" height="18" viewBox="0 0 18 18" fill="none" xmlns="http://www.w3.org/2000/svg">
<path d="M2.25 4.49997H3.75H15.75" stroke="#999999" stroke-width="1.22693" stroke-linecap="round" stroke-linejoin="round"/>
<path d="M14.8632 4.49997C14.8632 4.16116 14.5886 3.8865 14.2498 3.8865C13.9109 3.8865 13.6363 4.16116 13.6363 4.49997H14.8632ZM4.36322 4.49997C4.36322 4.16116 4.08856 3.8865 3.74976 3.8865C3.41095 3.8865 3.13629 4.16116 3.13629 4.49997H4.36322ZM5.38639 4.49994C5.38639 4.83874 5.66105 5.1134 5.99985 5.1134C6.33866 5.1134 6.61332 4.83874 6.61332 4.49994H5.38639ZM11.3864 4.49994C11.3864 4.83874 11.661 5.1134 11.9999 5.1134C12.3387 5.1134 12.6133 4.83874 12.6133 4.49994H11.3864ZM13.6363 4.49997V15H14.8632V4.49997H13.6363ZM13.6363 15C13.6363 15.4896 13.2394 15.8865 12.7498 15.8865V17.1134C13.917 17.1134 14.8632 16.1672 14.8632 15H13.6363ZM12.7498 15.8865H5.24976V17.1134H12.7498V15.8865ZM5.24976 15.8865C4.76013 15.8865 4.36322 15.4896 4.36322 15H3.13629C3.13629 16.1672 4.08252 17.1134 5.24976 17.1134V15.8865ZM4.36322 15V4.49997H3.13629V15H4.36322ZM6.61332 4.49994V2.99994H5.38639V4.49994H6.61332ZM6.61332 2.99994C6.61332 2.51032 7.01023 2.1134 7.49985 2.1134V0.886476C6.33262 0.886476 5.38639 1.83271 5.38639 2.99994H6.61332ZM7.49985 2.1134H10.4999V0.886476H7.49985V2.1134ZM10.4999 2.1134C10.9895 2.1134 11.3864 2.51032 11.3864 2.99994H12.6133C12.6133 1.83271 11.6671 0.886476 10.4999 0.886476V2.1134ZM11.3864 2.99994V4.49994H12.6133V2.99994H11.3864Z" fill="#999999"/>
<path d="M7.5 8.24994V12.7499" stroke="#999999" stroke-width="1.22693" stroke-linecap="round" stroke-linejoin="round"/>
<path d="M10.4998 8.24994V12.7499" stroke="#999999" stroke-width="1.22693" stroke-linecap="round" stroke-linejoin="round"/>
</svg>
