<svg width="18" height="18" viewBox="0 0 18 18" fill="none" xmlns="http://www.w3.org/2000/svg">
<path d="M15.4519 3.9225L14.4094 2.6625C14.2069 2.4075 13.8994 2.25 13.5469 2.25H4.54688C4.19438 2.25 3.88688 2.4075 3.67688 2.6625L2.64188 3.9225C2.42438 4.1775 2.29688 4.515 2.29688 4.875V14.25C2.29688 15.075 2.97187 15.75 3.79688 15.75H14.2969C15.1219 15.75 15.7969 15.075 15.7969 14.25V4.875C15.7969 4.515 15.6694 4.1775 15.4519 3.9225ZM9 12.3984L6.1875 9H7.54688V7.5H10.5469V9H12.1406L9 12.3984ZM3.88687 3.75L4.49437 3H13.4944L14.1994 3.75H3.88687Z" stroke="#999999" stroke-width="1.23"/>
</svg>
